<svg width="14" height="22" viewBox="0 0 14 22" fill="none" xmlns="http://www.w3.org/2000/svg">
<path d="M9.24289 2.0625C9.24289 3.2016 8.33954 4.125 7.2261 4.125C6.11266 4.125 5.20931 3.2016 5.20931 2.0625C5.20931 0.923398 6.11266 0 7.2261 0C8.33954 0 9.24289 0.923398 9.24289 2.0625ZM6.88997 15.125V20.625C6.88997 21.3855 6.28913 22 5.54544 22C4.80175 22 4.20091 21.3855 4.20091 20.625V11.0387L3.0005 13.084C2.61815 13.7328 1.7921 13.9434 1.15555 13.5523C0.518988 13.1613 0.313082 12.3191 0.6956 11.666L3.1442 7.50234C3.87318 6.26055 5.1841 5.5 6.60005 5.5H7.85214C9.2681 5.5 10.579 6.26055 11.3101 7.50234L13.7555 11.666C14.1378 12.3191 13.9319 13.1613 13.2975 13.5523C12.6588 13.9434 11.8353 13.7328 11.453 13.084L10.2513 11.0387V20.625C10.2513 21.3855 9.65045 22 8.90676 22C8.16307 22 7.56223 21.3855 7.56223 20.625V15.125H6.88997Z" fill="#0065FC"/>
</svg>
