<svg width="18" height="21" viewBox="0 0 18 21" fill="none" xmlns="http://www.w3.org/2000/svg">
<path d="M6.40057 0.212729C6.71396 -0.0735102 7.20012 -0.0695891 7.51351 0.21665C8.62244 1.23221 9.66307 2.32619 10.6354 3.51036C11.0774 2.94572 11.5796 2.33011 12.122 1.82821C12.4394 1.53805 12.9296 1.53805 13.247 1.83214C14.6372 3.12609 15.8144 4.83568 16.6421 6.45901C17.4577 8.05881 18.0001 9.6939 18.0001 10.8467C18.0001 15.85 13.9903 20.0769 9.00012 20.0769C3.95369 20.0769 0.00012207 15.8461 0.00012207 10.8428C0.00012207 9.33708 0.715301 7.4981 1.82423 5.67872C2.94521 3.83189 4.52825 1.90664 6.40057 0.212729ZM9.06843 16.3127C10.0849 16.3127 10.9849 16.0382 11.8327 15.4893C13.5242 14.3365 13.9782 12.0309 12.9617 10.2193C12.7809 9.86643 12.3189 9.84291 12.0577 10.1409L11.0452 11.2898C10.78 11.5878 10.3019 11.5799 10.0528 11.2702C9.38985 10.4468 8.20459 8.97635 7.52959 8.14116C7.27646 7.82747 6.79432 7.82355 6.53718 8.13723C5.17914 9.80369 4.4961 10.8545 4.4961 12.0348C4.50012 14.7207 6.53316 16.3127 9.06843 16.3127Z" fill="#0065FC"/>
</svg>
