<svg width="22" height="18" viewBox="0 0 22 18" fill="none" xmlns="http://www.w3.org/2000/svg">
<path d="M21.352 1.68473C20.0187 1.09418 18.6842 0.869507 17.3505 0.869507C13.1166 0.869144 8.88305 3.13224 4.64915 3.13224C3.58732 3.13224 2.52618 2.98995 1.46435 2.63425C1.34507 2.59432 1.22545 2.57545 1.10858 2.57545C0.516992 2.57545 0 3.05892 0 3.73004V15.2455C0 15.7039 0.248527 16.1384 0.647615 16.3148C1.981 16.9057 3.31542 17.1304 4.64915 17.1304C8.88305 17.1304 13.117 14.8673 17.3509 14.8673C18.4127 14.8673 19.4738 15.0096 20.5356 15.3653C20.6549 15.4052 20.7745 15.4241 20.8914 15.4241C21.483 15.4241 22 14.9406 22 14.2695V2.75439C21.9997 2.2956 21.7511 1.86149 21.352 1.68473ZM1.64997 4.50715C2.34159 4.69008 3.06345 4.78191 3.80594 4.83128C3.60382 5.89803 2.71558 6.702 1.64997 6.702V4.50715ZM1.64997 14.8517V13.1174C2.83142 13.1174 3.78738 14.1072 3.83997 15.346C3.06551 15.2803 2.34159 15.117 1.64997 14.8517ZM10.9998 12.4844C9.48082 12.4844 8.24987 10.924 8.24987 8.99994C8.24987 7.0755 9.48116 5.51547 10.9998 5.51547C12.5185 5.51547 13.7498 7.0755 13.7498 8.99994C13.7498 10.9247 12.5181 12.4844 10.9998 12.4844ZM20.3497 13.4927C19.7474 13.3334 19.1222 13.2441 18.4825 13.1864C18.6842 12.2398 19.4278 11.5211 20.3497 11.3977V13.4927ZM20.3497 4.92275C19.2879 4.78083 18.4639 3.84474 18.4312 2.68869C19.1029 2.76746 19.7406 2.91482 20.3497 3.14821V4.92275Z" fill="#0065FC"/>
</svg>
