<svg width="23" height="19" viewBox="0 0 23 19" fill="none" xmlns="http://www.w3.org/2000/svg">
<path d="M0.503296 6.22829V5.98543C0.503296 3.05861 2.67408 0.562237 5.63376 0.0815519C7.55447 -0.236253 9.58689 0.385957 10.9877 1.75306L11.5033 2.25468L11.9802 1.75306C13.4197 0.385957 15.4135 -0.236253 17.3728 0.0815519C20.3334 0.562237 22.5033 3.05861 22.5033 5.98543V6.22829C22.5033 7.96595 21.7642 9.62825 20.458 10.8132L12.6935 17.8769C12.3713 18.17 11.9459 18.3333 11.5033 18.3333C11.0607 18.3333 10.6353 18.17 10.3131 17.8769L2.54818 10.8132C1.24365 9.62825 0.503309 7.96595 0.503309 6.22829H0.503296Z" fill="#0065FC"/>
</svg>
